<svg width="300" height="88" viewBox="0 0 300 88" fill="none" xmlns="http://www.w3.org/2000/svg">
<rect width="300" height="88" fill="white"/>
<path fill-rule="evenodd" clip-rule="evenodd" d="M134.488 29.7864C132.168 29.7864 129.414 30.2783 126.406 33.7662V24.0051C126.406 21.5392 124.405 19.5333 121.944 19.5333C119.484 19.5333 117.483 21.5392 117.483 24.0051V55.8375C117.483 58.3033 119.484 60.3092 121.944 60.3092C124.405 60.3092 126.406 58.3033 126.406 55.8375V43.4827C126.406 39.9309 128.089 37.9697 131.154 37.9697C134.156 37.9697 135.737 39.8734 135.737 43.4827V55.8375C135.737 58.3033 137.738 60.3092 140.199 60.3092C142.659 60.3092 144.66 58.3033 144.66 55.8375V40.8891C144.654 33.9387 140.855 29.7864 134.488 29.7864ZM160.111 30.0037C156.478 30.0037 153.597 30.4764 150.773 31.5369C149.307 32.0863 148.326 33.5044 148.326 35.0632C148.326 37.1457 149.977 38.7747 152.086 38.7747C152.52 38.7747 152.883 38.7108 153.38 38.5447C155.095 38.0081 156.905 37.7526 158.925 37.7526C163.718 37.7526 164.738 40.4037 164.751 42.646C163.087 42.103 160.99 41.6047 158.065 41.6047C150.442 41.6047 146.069 45.099 146.069 51.1998V51.3084C146.069 56.8214 150.2 60.5266 156.344 60.5266C159.805 60.5266 162.578 59.4725 164.789 57.3133C165.165 58.8912 166.676 60.3157 168.996 60.3157C171.437 60.3157 173.349 58.4248 173.349 56.0101V42.8312C173.349 38.6853 172.266 35.4912 170.118 33.3447C167.9 31.128 164.534 30.0037 160.111 30.0037ZM158.817 54.1192C156.287 54.1192 154.719 52.9182 154.719 50.9826V50.874C154.719 48.5678 156.644 47.2519 160.003 47.2519C161.723 47.2519 163.438 47.5904 164.859 48.2037V49.4238C164.859 52.1836 162.374 54.1192 158.817 54.1192ZM185.306 33.8433C187.613 31.1155 190.456 29.7867 193.974 29.7867C200.686 29.7867 207.474 35.0442 207.474 45.0993V45.2079C207.474 49.8393 206.053 53.7617 203.369 56.5597C200.915 59.1214 197.582 60.5268 193.974 60.5268C190.501 60.5268 187.741 59.3386 185.351 56.8089V64.4747C185.351 66.9405 183.349 68.9464 180.889 68.9464C178.429 68.9464 176.427 66.9405 176.427 64.4747V34.4757C176.427 32.0098 178.429 30.0039 180.889 30.0039C183.139 30.0039 185 31.6777 185.306 33.8433ZM198.557 45.0993C198.557 40.7617 195.683 37.4845 191.871 37.4845C188.034 37.4845 185.242 40.685 185.242 45.0993V45.2079C185.242 49.6221 188.028 52.8226 191.871 52.8226C195.746 52.8226 198.557 49.6221 198.557 45.2079V45.0993ZM227.08 29.7867C223.561 29.7867 220.719 31.1155 218.411 33.8433C218.105 31.6777 216.244 30.0039 213.994 30.0039C211.534 30.0039 209.533 32.0098 209.533 34.4757V64.4747C209.533 66.9405 211.534 68.9464 213.994 68.9464C216.455 68.9464 218.456 66.9405 218.456 64.4747V56.8089C220.846 59.3386 223.606 60.5268 227.08 60.5268C230.687 60.5268 234.021 59.1214 236.475 56.5597C239.158 53.7617 240.579 49.8393 240.579 45.2079V45.0993C240.579 35.0442 233.791 29.7867 227.08 29.7867ZM224.976 37.4845C228.788 37.4845 231.662 40.7617 231.662 45.0993V45.2079C231.662 49.6221 228.852 52.8226 224.976 52.8226C221.133 52.8226 218.348 49.6221 218.348 45.2079V45.0993C218.348 40.685 221.139 37.4845 224.976 37.4845ZM260.485 33.3768C261.313 31.1664 262.792 30.0038 264.761 30.0038C267.139 30.0038 269.006 31.8244 269 34.137C269 34.8077 268.783 35.7787 268.592 36.2259L258.528 60.45C255.998 66.589 253.359 68.7674 248.445 68.7674C246.711 68.7674 245.379 68.5374 243.849 67.9881C242.797 67.6048 241.026 66.6082 241.026 64.2446C241.026 61.9193 242.855 60.533 244.62 60.533C245.321 60.533 245.742 60.6544 246.08 60.7694C246.775 60.9866 247.157 61.076 247.686 61.076C249.025 61.076 249.586 60.8588 250.261 59.562L250.465 59.0765L240.675 36.3409C240.452 35.7787 240.216 34.9099 240.216 34.303C240.216 31.85 242.109 29.9974 244.62 29.9974C246.692 29.9974 248.094 31.0834 248.897 33.3193L254.793 49.2067L260.485 33.3768Z" fill="#5C8599"/>
<path d="M92.9739 25.7786V51.9078C92.9739 62.2784 84.5339 70.6863 74.1237 70.6863H72.217L62.4805 80.3795C62.0992 80.7594 61.5717 81 60.987 81C60.4467 81 59.9574 80.8037 59.5824 80.4745L59.4172 80.3099L59.4108 80.3036L49.7569 70.6863H47.8439C37.44 70.6863 29 62.2784 29 51.9078V25.7786C29 15.4079 37.44 7 47.8503 7H74.1237C84.5339 7 92.9739 15.4079 92.9739 25.7786Z" fill="#FFD666"/>
<path d="M43.895 43.197C42.0392 43.197 40.9814 45.3036 42.0582 46.8248C46.2449 52.7501 53.1677 56.6133 60.99 56.6133C68.8123 56.6133 75.7289 52.7437 79.9155 46.8248C80.9923 45.3036 79.9345 43.197 78.0787 43.197H43.895Z" fill="white"/>
<path d="M54.764 34.2298H43.5658V28.6036C43.5658 25.4977 46.074 22.9774 49.1649 22.9774C52.2558 22.9774 54.764 25.4977 54.764 28.6036V34.2298Z" fill="white"/>
<path d="M78.4148 34.2298H67.2166V28.6036C67.2166 25.4977 69.7248 22.9774 72.8157 22.9774C75.9066 22.9774 78.4148 25.4977 78.4148 28.6036V34.2298Z" fill="white"/>
</svg>
